<svg xmlns="http://www.w3.org/2000/svg" width="1200" height="630" viewBox="0 0 1200 630">
  <defs>
    <linearGradient id="g" x1="0" x2="1" y1="0" y2="1">
      <stop offset="0" stop-color="#ffffff"/>
      <stop offset="1" stop-color="#f3f7ff"/>
    </linearGradient>
    <filter id="shadow" x="-10%" y="-10%" width="120%" height="120%">
      <feDropShadow dx="0" dy="16" stdDeviation="24" flood-color="#000000" flood-opacity="0.08"/>
    </filter>
  </defs>
  <rect width="1200" height="630" fill="url(#g)"/>
  <g opacity="0.45">
    <path d="M0 80H1200M0 160H1200M0 240H1200M0 320H1200M0 400H1200M0 480H1200M0 560H1200" stroke="#171717" stroke-opacity="0.05"/>
    <path d="M120 0V630M240 0V630M360 0V630M480 0V630M600 0V630M720 0V630M840 0V630M960 0V630M1080 0V630" stroke="#171717" stroke-opacity="0.05"/>
  </g>
  <rect x="110" y="100" width="980" height="430" rx="28" fill="#fff" filter="url(#shadow)"/>
  <rect x="110.5" y="100.5" width="979" height="429" rx="27.5" fill="none" stroke="#000" stroke-opacity="0.08"/>
  <text x="160" y="255" font-family="Geist, Inter, Arial, sans-serif" font-size="128" font-weight="700" letter-spacing="-7" fill="#171717">Ray</text>
  <text x="166" y="326" font-family="Geist, Inter, Arial, sans-serif" font-size="42" font-weight="500" letter-spacing="-1.6" fill="#171717">AIAgent 产品探索者 / 独立开发者</text>
  <text x="166" y="394" font-family="Geist Mono, ui-monospace, Menlo, monospace" font-size="24" fill="#666666">github.com/rayalexvector</text>
</svg>
