<svg xmlns="http://www.w3.org/2000/svg" viewBox="0 0 512 512">
  <defs>
    <radialGradient id="bg" cx="50%" cy="28%" r="76%">
      <stop offset="0" stop-color="#27306f"/>
      <stop offset="0.46" stop-color="#10142b"/>
      <stop offset="1" stop-color="#05060e"/>
    </radialGradient>
    <linearGradient id="cat" x1="130" x2="382" y1="108" y2="404" gradientUnits="userSpaceOnUse">
      <stop offset="0" stop-color="#fff"/>
      <stop offset="0.45" stop-color="#39e7ff"/>
      <stop offset="1" stop-color="#ff4fd8"/>
    </linearGradient>
    <filter id="glow" x="-40%" y="-40%" width="180%" height="180%">
      <feGaussianBlur stdDeviation="10" result="b"/>
      <feMerge><feMergeNode in="b"/><feMergeNode in="SourceGraphic"/></feMerge>
    </filter>
  </defs>
  <rect width="512" height="512" rx="112" fill="url(#bg)"/>
  <g opacity=".36" stroke="#39e7ff" stroke-width="4">
    <path d="M58 380h396M91 424h330M132 468h248"/>
    <path d="M256 278 70 468M256 278l186 190M256 278v210"/>
  </g>
  <circle cx="382" cy="112" r="48" fill="#ff4fd8" opacity=".45" filter="url(#glow)"/>
  <circle cx="116" cy="166" r="34" fill="#39e7ff" opacity=".42" filter="url(#glow)"/>
  <g filter="url(#glow)">
    <path d="M256 72c70 55 98 113 86 175-10 54-43 102-86 151-43-49-76-97-86-151-12-62 16-120 86-175Z" fill="url(#cat)"/>
    <path d="M198 132 142 66l20 88M314 132l56-66-20 88" fill="#ff4fd8"/>
    <path d="M218 213a14 14 0 1 0 0-1M294 213a14 14 0 1 0 0-1" fill="#06111f"/>
    <path d="M239 252c14 16 26 16 40 0" fill="none" stroke="#06111f" stroke-width="12" stroke-linecap="round"/>
    <path d="M220 398 256 476l36-78" fill="#39e7ff" opacity=".7"/>
  </g>
</svg>
